PathFileType	4	(X/Y/Z)
DataRate	CameraRate	NumFrames	NumMarkers	Units	OrigDataRate	OrigDataStartFrame	OrigNumFrames	
	120.0	120.0	4	39	mm	120.0	76	201
Frame#	Time	midhip	hip_r	hip_l	knee_r	knee_l	ankle_r	ankle_l	midasis	asis_r	asis_l	psis_r	psis_l	epicondLat_r	epicondLat_l	epicondMed_r	epicondMed_l	malleolusLat_r	malleolusLat_l	malleolusMedv_r	malleolusMedv_l	heel_r	heel_l	sternalnotch	xyphoidprocess	neck	subclavicle_r	subclavicle_l	toe_r	toe_l	thighwand_r	thighwand_l	upperleg1_r	upperleg1_l	upperleg2_r	upperleg2_l	shankwand_r	shankwand_l	lowerleg1_r	lowerleg1_l
	X1	Y1	Z1	X2	Y2	Z2	X3	Y3	Z3	X4	Y4	Z4	X5	Y5	Z5	X6	Y6	Z6	X7	Y7	Z7	X8	Y8	Z8	X9	Y9	Z9	X10	Y10	Z10	X11	Y11	Z11	X12	Y12	Z12	X13	Y13	Z13	X14	Y14	Z14	X15	Y15	Z15	X16	Y16	Z16	X17	Y17	Z17	X18	Y18	Z18	X19	Y19	Z19	X20	Y20	Z20	X21	Y21	Z21	X22	Y22	Z22	X23	Y23	Z23	X24	Y24	Z24	X25	Y25	Z25	X26	Y26	Z26	X27	Y27	Z27	X28	Y28	Z28	X29	Y29	Z29	X30	Y30	Z30	X31	Y31	Z31	X32	Y32	Z32	X33	Y33	Z33	X34	Y34	Z34	X35	Y35	Z35	X36	Y36	Z36	X37	Y37	Z37	X38	Y38	Z38	X39	Y39	Z39

	76	0.63333	745.070	785.025	-244.293	724.488	790.375	-164.955	723.722	790.872	-320.581	721.655	419.156	-154.135	732.386	429.103	-333.611	716.314	58.972	-117.064	726.319	56.865	-368.325	859.081	852.578	-243.235	859.685	852.187	-120.610	858.477	852.970	-365.860	621.290	943.602	-208.148	616.964	942.059	-263.372	727.936	421.242	-80.933	726.078	431.588	-406.798	710.180	423.588	-225.632	730.592	408.010	-260.627	705.816	63.130	-78.170	702.551	60.408	-402.159	721.932	66.909	-153.100	721.926	72.500	-325.525	653.752	49.899	-124.650	672.319	47.255	-334.476	781.384	1288.776	-263.758	839.643	1220.057	-264.230	664.100	1350.888	-247.304	799.618	1296.051	-211.111	796.571	1295.480	-293.373	824.442	43.694	-104.706	822.044	48.258	-382.874	888.681	573.430	-89.617	909.554	605.262	-347.076	850.542	595.715	-111.332	861.719	621.830	-351.253	821.754	523.194	-114.735	844.323	549.730	-352.323	799.794	208.655	-103.842	686.613	175.595	-460.319	754.546	214.572	-116.925	692.284	184.685	-412.158
	77	0.64167	745.062	785.019	-244.345	724.471	790.377	-165.012	723.735	790.840	-320.638	721.697	419.158	-154.149	732.624	429.227	-333.536	716.289	58.956	-117.048	726.400	56.833	-368.337	859.083	852.556	-243.279	859.663	852.192	-120.625	858.502	852.921	-365.934	621.246	943.591	-208.137	617.041	942.046	-263.372	727.994	421.253	-80.949	726.142	431.678	-406.709	710.037	423.748	-225.643	730.466	408.214	-260.451	705.799	63.120	-78.152	702.551	60.388	-402.113	721.879	66.924	-153.094	721.919	72.556	-325.487	653.760	49.883	-124.658	672.319	47.259	-334.478	781.569	1288.753	-263.703	839.815	1220.025	-264.403	664.440	1350.822	-247.387	799.972	1295.992	-211.090	796.662	1295.473	-293.381	824.424	43.675	-104.655	822.049	48.255	-382.821	888.710	573.403	-89.641	909.619	605.282	-347.103	850.634	595.658	-111.324	861.802	621.796	-351.357	821.754	523.194	-114.735	844.362	549.686	-352.307	799.839	208.650	-103.868	686.593	175.617	-460.377	754.630	214.568	-116.900	692.266	184.751	-412.167
	78	0.65000	745.071	785.006	-244.410	724.455	790.375	-165.084	723.770	790.817	-320.711	721.730	419.153	-154.152	732.893	429.354	-333.457	716.273	58.939	-117.033	726.494	56.801	-368.364	859.097	852.534	-243.316	859.637	852.186	-120.638	858.556	852.883	-365.995	621.336	943.557	-208.224	617.118	942.022	-263.340	728.054	421.262	-80.955	726.214	431.765	-406.613	709.783	423.649	-225.277	729.803	408.785	-260.437	705.798	63.106	-78.134	702.554	60.371	-402.075	721.840	66.923	-153.086	721.932	72.584	-325.457	653.768	49.873	-124.664	672.317	47.264	-334.477	781.774	1288.688	-263.767	839.971	1219.922	-264.760	664.773	1350.774	-247.428	800.305	1295.796	-211.202	796.802	1295.466	-293.445	824.429	43.664	-104.640	822.048	48.269	-382.838	888.731	573.376	-89.651	909.684	605.313	-347.139	850.629	595.612	-111.327	862.175	621.750	-351.345	821.688	523.147	-114.616	844.362	549.686	-352.307	799.877	208.642	-103.885	686.568	175.622	-460.422	754.630	214.568	-116.900	692.255	184.762	-412.173
	79	0.65833	745.095	784.990	-244.479	724.443	790.374	-165.162	723.824	790.804	-320.789	721.753	419.142	-154.145	733.156	429.475	-333.388	716.267	58.927	-117.031	726.584	56.778	-368.403	859.123	852.515	-243.341	859.611	852.175	-120.644	858.635	852.854	-366.039	621.546	943.505	-208.390	617.197	941.994	-263.274	728.114	421.268	-80.952	726.288	431.847	-406.528	709.173	423.727	-224.778	729.561	408.980	-260.474	705.812	63.094	-78.127	702.558	60.363	-402.050	721.822	66.923	-153.087	721.987	72.599	-325.449	653.777	49.862	-124.670	672.312	47.268	-334.473	781.911	1288.635	-263.843	840.059	1219.832	-265.106	665.026	1350.752	-247.425	800.583	1295.643	-211.369	796.867	1295.452	-293.496	824.432	43.658	-104.632	822.046	48.303	-382.925	888.760	573.349	-89.675	909.738	605.339	-347.180	850.628	595.604	-111.327	862.372	621.718	-351.279	821.472	523.076	-114.465	844.361	549.701	-352.317	799.907	208.632	-103.897	686.532	175.604	-460.442	754.630	214.568	-116.900	692.255	184.762	-412.173
